HIERARCHY
ROOT Hips
{
	OFFSET 0.000000 0.000000 0.000000 
	CHANNELS 6 Xposition Yposition Zposition Zrotation Yrotation Xrotation
	JOINT LeftUpLeg
	{
		OFFSET 1.363060 -1.794630 0.839290 
		CHANNELS 3 Zrotation Yrotation Xrotation
		JOINT LeftLeg
		{
			OFFSET 2.448110 -6.726130 0.000000 
			CHANNELS 3 Zrotation Yrotation Xrotation
			JOINT LeftFoot
			{
				OFFSET 2.562200 -7.039590 0.000000 
				CHANNELS 3 Zrotation Yrotation Xrotation
				JOINT LeftToeBase
				{
					OFFSET 0.157640 -0.433110 2.322550 
					CHANNELS 3 Zrotation Yrotation Xrotation
					End Site
					{
						OFFSET 0.000000 0.000000 0.000000 
					}
				}
			}
		}
	}
	JOINT RightUpLeg
	{
		OFFSET -1.305520 -1.794630 0.839290 
		CHANNELS 3 Zrotation Yrotation Xrotation
		JOINT RightLeg
		{
			OFFSET -2.542530 -6.985550 0.000000 
			CHANNELS 3 Zrotation Yrotation Xrotation
			JOINT RightFoot
			{
				OFFSET -2.568260 -7.056230 0.000000 
				CHANNELS 3 Zrotation Yrotation Xrotation
				JOINT RightToeBase
				{
					OFFSET -0.164730 -0.452590 2.363150 
					CHANNELS 3 Zrotation Yrotation Xrotation
					End Site
					{
						OFFSET 0.000000 0.000000 0.000000 
					}
				}
			}
		}
	}
	JOINT Spine
	{
		OFFSET 0.028270 2.035590 -0.193380 
		CHANNELS 3 Zrotation Yrotation Xrotation
		JOINT Spine1
		{
			OFFSET 0.056720 2.048850 -0.042750 
			CHANNELS 3 Zrotation Yrotation Xrotation
			JOINT Neck1
			{
				OFFSET -0.054170 1.746240 0.172020 
				CHANNELS 3 Zrotation Yrotation Xrotation
				JOINT Head
				{
					OFFSET 0.104070 1.761360 -0.123970 
					CHANNELS 3 Zrotation Yrotation Xrotation
					End Site
					{
						OFFSET 0.000000 0.000000 0.000000 
					}
				}
			}
			JOINT LeftArm
			{
				OFFSET 3.362410 1.200890 -0.311210 
				CHANNELS 3 Zrotation Yrotation Xrotation
				JOINT LeftForeArm
				{
					OFFSET 4.983000 -0.000000 -0.000000 
					CHANNELS 3 Zrotation Yrotation Xrotation
					JOINT LeftHand
					{
						OFFSET 3.483560 -0.000000 -0.000000 
						CHANNELS 3 Zrotation Yrotation Xrotation
						JOINT LeftHandIndex1
						{
							OFFSET 0.715260 -0.000000 -0.000000 
							CHANNELS 3 Zrotation Yrotation Xrotation
							End Site
							{
								OFFSET 0.000000 0.000000 0.000000 
							}
						}
					}
				}
			}
			JOINT RightArm
			{
				OFFSET -3.136600 1.374050 -0.404650 
				CHANNELS 3 Zrotation Yrotation Xrotation
				JOINT RightForeArm
				{
					OFFSET -5.241900 -0.000000 -0.000000 
					CHANNELS 3 Zrotation Yrotation Xrotation
					JOINT RightHand
					{
						OFFSET -3.444170 -0.000000 -0.000000 
						CHANNELS 3 Zrotation Yrotation Xrotation
						JOINT RightHandIndex1
						{
							OFFSET -0.622530 -0.000000 -0.000000 
							CHANNELS 3 Zrotation Yrotation Xrotation
							End Site
							{
								OFFSET 0.000000 0.000000 0.000000 
							}
						}
					}
				}
			}
		}
	}
}
MOTION
Frames: 18
Frame Time: 0.041667
9.445880 17.863278 34.405209 -179.961737 -1.620887 -152.406435 -23.978358 -18.229695 -19.883664 -1.314507 4.731398 10.027957 0.663628 -1.695013 -16.985165 5.497200 -13.922800 -42.928900 32.346329 17.649764 -18.380022 1.538868 -4.157461 8.768727 -1.139010 -5.705903 -23.633255 -4.070400 12.253400 -36.634500 1.726271 -0.287973 -5.430750 0.567299 -1.286494 13.552539 9.074451 -9.009703 33.186902 0.968100 -3.751300 8.849200 -105.002701 -0.661473 -5.797919 7.725767 -7.402499 -0.538903 -1.141237 1.674047 26.983022 -7.125000 0.000000 0.000000 98.338173 -5.091833 -7.783277 -10.115777 19.168303 -2.261367 1.316481 4.022525 8.724939 7.125000 0.000000 0.000000 
9.446428 17.859991 34.400060 -179.923392 -1.523184 -152.266562 -23.903587 -18.224799 -20.001724 -1.322051 4.734611 10.009895 0.679615 -1.596982 -17.057027 5.417300 -13.838900 -42.595800 32.307077 17.775231 -18.539720 1.538583 -4.181435 8.774590 -1.145354 -5.589804 -23.671663 -4.030200 12.200500 -36.444800 1.706718 -0.236383 -5.419638 0.524465 -1.271332 13.679013 9.192509 -8.939208 33.331789 1.018600 -3.698700 8.960700 -104.990096 -0.495436 -7.739289 7.573205 -7.266362 -0.512098 -1.071448 1.709293 29.046645 -7.125000 0.000000 0.000000 98.440674 -5.168871 -8.608244 -9.902945 18.841224 -2.169059 1.332348 4.010120 9.240424 7.125000 0.000000 0.000000 
9.448400 17.860211 34.397540 -179.944186 -1.543499 -152.240894 -23.907889 -18.234647 -20.015088 -1.321328 4.732036 9.998839 0.674280 -1.616133 -17.021072 5.257800 -13.668400 -41.925000 32.260643 17.828604 -18.515271 1.539426 -4.163703 8.730109 -1.156795 -5.527900 -23.754216 -3.965300 12.114000 -36.136600 1.693432 -0.239845 -5.411156 0.509684 -1.276015 13.729473 9.255943 -8.879504 33.403367 1.035400 -3.652900 9.016200 -104.939239 -0.303027 -9.065264 7.436258 -7.127635 -0.491181 -1.020808 1.770376 30.478917 -7.125000 0.000000 0.000000 98.548287 -5.155292 -9.653551 -9.640683 18.423430 -2.057753 1.372383 3.988076 10.111505 7.125000 0.000000 0.000000 
9.446866 17.860539 34.396006 -179.924318 -1.555428 -152.211669 -23.874819 -18.290078 -20.016009 -1.322973 4.727593 9.982089 0.675821 -1.597357 -17.018512 5.240300 -13.649400 -41.850700 32.267839 17.910324 -18.490330 1.545169 -4.148416 8.683505 -1.149212 -5.632967 -23.735854 -3.953600 12.098400 -36.080900 1.680067 -0.230434 -5.402869 0.476898 -1.268397 13.754138 9.039474 -8.951906 33.276027 0.899300 -3.687000 8.890000 -104.783337 -0.076942 -9.124500 7.289605 -6.896054 -0.466060 -1.016004 1.808394 30.564015 -7.125000 0.000000 0.000000 98.626041 -5.122963 -10.506586 -9.391292 18.019686 -1.950135 1.362736 3.986221 10.789977 7.125000 0.000000 0.000000 
9.445442 17.861525 34.392390 -179.902152 -1.587034 -152.197529 -23.848176 -18.322882 -19.983756 -1.325798 4.712067 9.945526 0.680228 -1.583108 -17.049662 5.358900 -13.776900 -42.351200 32.304502 17.948745 -18.416775 1.552217 -4.108801 8.588966 -1.143922 -5.731152 -23.727401 -3.985800 12.141500 -36.234300 1.678189 -0.252993 -5.400740 0.477076 -1.275794 13.782337 9.328178 -8.810430 33.215098 1.022500 -3.591700 8.910100 -104.569490 0.041706 -9.201148 7.028163 -6.467982 -0.420967 -1.018825 1.837700 30.529568 -7.125000 0.000000 0.000000 98.675239 -5.187446 -10.949647 -9.222652 17.740988 -1.870624 1.269347 3.977982 10.876438 7.125000 0.000000 0.000000 
9.450482 17.862292 34.384611 -179.896088 -1.682430 -152.249731 -23.800945 -18.399797 -19.814843 -1.330250 4.665431 9.852729 0.686136 -1.578098 -17.097690 5.325300 -13.741000 -42.209700 32.381576 18.018233 -18.209458 1.562276 -4.055688 8.491813 -1.150745 -5.884746 -23.849105 -3.971400 12.122200 -36.165800 1.700231 -0.324047 -5.401503 0.514014 -1.313917 13.785280 8.853089 -8.908752 33.181842 0.786700 -3.653100 8.832200 -104.477824 0.103562 -9.266113 6.749793 -5.998824 -0.374892 -1.052364 1.864154 30.505196 -7.125000 0.000000 0.000000 98.700725 -5.417847 -11.056949 -9.142255 17.619362 -1.832569 1.232714 3.984773 10.768431 7.125000 0.000000 0.000000 
9.443798 17.861854 34.386474 -179.808620 -1.591701 -152.090460 -23.648577 -18.609819 -19.962177 -1.341396 4.695761 9.880437 0.717860 -1.362806 -17.216573 5.185800 -13.590000 -41.619200 32.381100 18.015885 -18.569923 1.551167 -4.161643 8.678672 -1.152161 -5.660045 -23.799855 -3.967900 12.117600 -36.149400 1.683360 -0.250102 -5.428396 0.403164 -1.275233 13.714115 8.865155 -8.875352 33.191979 0.790700 -3.630100 8.868400 -104.453522 0.106358 -9.259810 6.502635 -5.571208 -0.338244 -1.085146 1.913073 30.577022 -7.125000 0.000000 0.000000 98.775884 -5.720123 -11.237807 -9.089812 17.572399 -1.821114 1.314008 4.003652 10.934990 7.125000 0.000000 0.000000 
9.441607 17.862730 34.386803 -179.779162 -1.535054 -151.945106 -23.611849 -18.460258 -20.252697 -1.331388 4.765202 10.018126 0.695992 -1.511071 -17.184899 5.111400 -13.508200 -41.301800 32.341522 18.081355 -18.818232 1.547668 -4.224547 8.772637 -1.144037 -5.602022 -23.732333 -3.992500 12.150400 -36.266300 1.677790 -0.204589 -5.441809 0.374683 -1.256048 13.701820 8.756830 -8.919050 33.155169 0.725800 -3.649400 8.839300 -104.580982 0.247981 -9.299884 6.502916 -5.559302 -0.334540 -1.104249 1.885762 30.749213 -7.125000 0.000000 0.000000 98.807597 -5.839938 -11.825122 -8.964326 17.384547 -1.781045 1.437314 3.978782 11.601898 7.125000 0.000000 0.000000 
9.441059 17.864593 34.386474 -179.807016 -1.538045 -151.911661 -23.677391 -18.289637 -20.358852 -1.320899 4.783559 10.061994 0.666075 -1.715507 -17.110340 5.095100 -13.490000 -41.231700 32.287437 18.086753 -18.913590 1.544554 -4.266210 8.859680 -1.144713 -5.592283 -23.747936 -3.949000 12.092300 -36.059200 1.680716 -0.202668 -5.442354 0.386299 -1.249974 13.705468 8.937989 -8.930111 33.076349 0.809000 -3.648200 8.837200 -104.895900 0.635427 -9.437957 6.794782 -6.042624 -0.371527 -1.098399 1.796805 30.913499 -7.125000 0.000000 0.000000 98.820456 -5.885106 -12.532934 -8.837377 17.174857 -1.734044 1.512628 3.949218 12.289794 7.125000 0.000000 0.000000 
9.440183 17.866346 34.379681 -179.870387 -1.540407 -152.085558 -23.837463 -18.231641 -20.104167 -1.316428 4.740689 10.008628 0.656282 -1.803091 -17.076704 5.112400 -13.509200 -41.306000 32.286569 17.924073 -18.660211 1.542733 -4.215205 8.812166 -1.147603 -5.635301 -23.747559 -3.938100 12.077600 -36.006900 1.661430 -0.176588 -5.426355 0.332366 -1.228722 13.679223 8.766045 -9.077532 32.979355 0.703000 -3.724300 8.755400 -105.052514 0.947628 -9.524740 6.952516 -6.310764 -0.394958 -1.079307 1.763680 31.027005 -7.125000 0.000000 0.000000 98.939277 -6.014062 -12.976673 -8.797979 17.110610 -1.712789 1.486266 3.964662 12.428893 7.125000 0.000000 0.000000 
9.443798 17.867113 34.380338 -179.999231 -1.661696 -152.111046 -23.953367 -18.245955 -20.161573 -1.302672 4.791413 10.131134 0.630544 -1.994802 -17.043348 5.079100 -13.472300 -41.163400 32.174118 17.976202 -18.515634 1.555693 -4.153842 8.683893 -1.141240 -5.921686 -23.816269 -3.942800 12.083900 -36.029400 1.664856 -0.232323 -5.432734 0.411163 -1.254874 13.635482 9.000904 -9.056391 32.846978 0.810400 -3.703800 8.736800 -105.070256 1.095088 -9.583265 6.975774 -6.350158 -0.394880 -1.073139 1.698204 31.137090 -7.125000 0.000000 0.000000 99.002859 -6.093750 -13.043276 -8.786362 17.080081 -1.697953 1.405182 3.996361 12.142135 7.125000 0.000000 0.000000 
9.441388 17.868209 34.375846 -179.924124 -1.626244 -152.124579 -23.871917 -18.276188 -20.104655 -1.311910 4.776467 10.100654 0.657711 -1.808518 -17.103678 5.086000 -13.480000 -41.193100 32.251823 17.988710 -18.507581 1.553165 -4.163234 8.706864 -1.154455 -5.803604 -23.884525 -3.913900 12.044900 -35.891000 1.679011 -0.202808 -5.419643 0.458310 -1.235537 13.682542 9.006689 -9.080926 32.745901 0.811000 -3.715200 8.692500 -105.115191 1.265743 -9.657229 7.043853 -6.487591 -0.412196 -0.993445 1.734970 31.287089 -7.125000 0.000000 0.000000 98.985392 -6.092793 -13.302583 -8.712775 16.949635 -1.663287 1.364322 3.994718 12.184808 7.125000 0.000000 0.000000 
9.441497 17.868647 34.381105 -179.840447 -1.665973 -152.018625 -23.714821 -18.277523 -20.298106 -1.311278 4.812709 10.157502 0.654260 -1.801081 -17.077147 5.121600 -13.519400 -41.345300 32.319811 17.962129 -18.753038 1.545522 -4.231120 8.823727 -1.166472 -5.578259 -23.922904 -3.851700 11.960500 -35.592200 1.689866 -0.199184 -5.433354 0.466222 -1.225664 13.639316 9.039432 -9.122174 32.651253 0.815500 -3.731400 8.658900 -105.147215 1.431314 -9.697913 7.138354 -6.659507 -0.430817 -0.938994 1.723241 31.443085 -7.125000 0.000000 0.000000 98.997530 -6.093766 -13.590967 -8.635747 16.814768 -1.630273 1.338795 3.976923 12.294739 7.125000 0.000000 0.000000 
9.441607 17.869962 34.375846 -179.892698 -1.626577 -152.106292 -23.837843 -18.220369 -20.150376 -1.308120 4.786460 10.123747 0.646836 -1.876733 -17.070253 5.090100 -13.484600 -41.210600 32.291813 17.832862 -18.620713 1.536099 -4.202010 8.801538 -1.176458 -5.385678 -23.893070 -3.782400 11.865000 -35.256200 1.677206 -0.196414 -5.409815 0.458565 -1.224826 13.696903 9.100406 -9.115655 32.723805 0.839800 -3.716300 8.737600 -105.165794 1.585369 -9.834636 7.242380 -6.849794 -0.449157 -0.918030 1.694607 31.515669 -7.125000 0.000000 0.000000 99.028655 -6.069700 -13.699841 -8.582631 16.729339 -1.608748 1.330264 3.972612 12.364477 7.125000 0.000000 0.000000 
9.442593 17.871277 34.373107 -179.955601 -1.637618 -152.146852 -23.926658 -18.181282 -20.099870 -1.301202 4.785457 10.136256 0.629740 -2.023020 -17.060606 5.023600 -13.410400 -40.924800 32.234503 17.872357 -18.486984 1.543547 -4.163239 8.730840 -1.173083 -5.568071 -23.933802 -3.750400 11.820700 -35.100600 1.666838 -0.223036 -5.396616 0.434799 -1.241324 13.740312 9.068148 -9.091668 32.850968 0.824300 -3.695600 8.832300 -105.171649 1.705402 -9.970724 7.328903 -7.009062 -0.465069 -0.912938 1.682652 31.501070 -7.125000 0.000000 0.000000 99.109858 -6.048912 -13.934072 -8.568591 16.706329 -1.601645 1.336974 3.957555 12.634728 7.125000 0.000000 0.000000 
9.440840 17.871824 34.372559 -179.928125 -1.673267 -152.180356 -23.896250 -18.179028 -20.051375 -1.299162 4.777794 10.129221 0.623903 -2.082197 -17.067846 4.950400 -13.327700 -40.607800 32.273297 17.942444 -18.404318 1.550916 -4.150248 8.706640 -1.170476 -5.732242 -23.985145 -3.740800 11.807200 -35.053300 1.676962 -0.244470 -5.391617 0.415533 -1.246452 13.743005 8.978382 -9.096787 32.828873 0.782300 -3.701200 8.809600 -105.240361 1.777252 -9.290728 7.400528 -7.081686 -0.474963 -0.951637 1.654191 30.724859 -7.125000 0.000000 0.000000 99.148536 -6.095204 -14.014807 -8.611289 16.772774 -1.614640 1.318903 3.947278 12.674641 7.125000 0.000000 0.000000 
9.438430 17.870290 34.371025 -179.946894 -1.657592 -152.239707 -23.965184 -18.144087 -19.957064 -1.300590 4.755288 10.091659 0.627673 -2.055629 -17.061054 5.022800 -13.409400 -40.920900 32.278848 17.781311 -18.388990 1.540903 -4.155884 8.747036 -1.171177 -5.579413 -23.898977 -3.777900 11.858800 -35.234300 1.700931 -0.285806 -5.385061 0.458679 -1.260014 13.750073 8.928666 -9.118151 32.693894 0.762100 -3.722100 8.713100 -105.379837 1.830800 -9.043140 7.457690 -7.158859 -0.484769 -0.968992 1.656535 30.276901 -7.125000 0.000000 0.000000 99.115772 -6.156146 -13.828109 -8.685225 16.888786 -1.640118 1.298236 3.957416 12.473601 7.125000 0.000000 0.000000 
9.439854 17.867770 34.368834 -179.954456 -1.664768 -152.233861 -23.972730 -18.122362 -19.985258 -1.302246 4.762367 10.104541 0.634179 -2.011489 -17.079535 5.198700 -13.604100 -41.674300 32.305419 17.543823 -18.475973 1.530631 -4.173271 8.798751 -1.170973 -5.406518 -23.807000 -3.860600 11.972600 -35.635100 1.719349 -0.319346 -5.383941 0.506912 -1.275198 13.776411 9.096630 -9.021850 32.650294 0.850200 -3.666000 8.733200 -105.483024 1.853478 -8.749539 7.518953 -7.247140 -0.498363 -0.977079 1.691929 29.777695 -7.125000 0.000000 0.000000 99.144875 -6.245955 -13.455979 -8.803830 17.085050 -1.684889 1.280773 3.971295 12.041300 7.125000 0.000000 0.000000 
